<svg xmlns="http://www.w3.org/2000/svg" viewBox="0 0 256 256"><defs><style>.cls-1{fill:#8bbc37;}.cls-2{fill:#efc100;stroke:#000;stroke-miterlimit:10;stroke-width:2px;}</style></defs><title>Logo</title><g id="Layer_2" data-name="Layer 2"><g id="Layer_1-2" data-name="Layer 1"><rect class="cls-1" x="0.5" y="0.5" width="255" height="255"/><path d="M255,1V255H1V1H255m1-1H0V256H256V0Z"/></g><g id="Layer_2-2" data-name="Layer 2"><path class="cls-2" d="M231.11,30.29C195.94,30.71,67,30.17,36.5,30a3.23,3.23,0,0,0-2.59,5.18L144.12,179.82a3.24,3.24,0,0,1-2.59,5.18H48.37A3.24,3.24,0,0,0,46,186L22.3,219.52A3.24,3.24,0,0,0,24.63,225H225.32a3.24,3.24,0,0,0,2.54-5.24L114.19,68.3a3.24,3.24,0,0,1,2.57-5.24l88,1.93a3.24,3.24,0,0,0,2.17-.81l26.36-28.23A3.23,3.23,0,0,0,231.11,30.29Z"/></g></g></svg>